<svg  xmlns="http://www.w3.org/2000/svg"
 width="866" height="813" viewBox="0 0 866.000000 813.000000"
 preserveAspectRatio="xMidYMid meet">
<g transform="translate(0.000000,813.000000) scale(0.100000,-0.100000)"
fill="#004867" stroke="none">
<path d="M2943 7615 c-180 -121 -285 -345 -354 -755 -7 -41 -13 -162 -13 -267
-1 -140 -4 -193 -13 -193 -23 0 -114 135 -161 240 -40 89 -112 334 -112 381 0
27 -4 39 -14 39 -27 0 -113 -177 -138 -285 -5 -22 -16 -89 -24 -148 -13 -96
-13 -124 0 -235 9 -70 20 -147 25 -172 11 -50 63 -184 107 -272 15 -32 25 -60
21 -64 -20 -20 -193 134 -282 251 -49 65 -124 200 -140 253 -11 36 -20 26 -33
-36 -42 -204 23 -499 162 -734 60 -101 200 -254 296 -324 85 -60 110 -94 72
-94 -29 0 -212 92 -305 154 -45 30 -131 101 -191 157 l-108 103 7 -65 c4 -35
13 -89 20 -119 17 -74 105 -258 159 -334 54 -75 152 -175 226 -230 78 -57 362
-198 445 -220 86 -22 140 -48 122 -57 -19 -11 -151 8 -282 40 -66 16 -122 28
-124 25 -11 -10 35 -77 90 -131 103 -101 202 -154 454 -243 286 -100 370 -133
458 -176 180 -89 251 -159 277 -275 10 -46 10 -63 -4 -109 -9 -30 -28 -71 -42
-91 -34 -50 -174 -137 -324 -203 -66 -29 -124 -57 -128 -61 -8 -8 228 0 383
15 55 5 159 24 230 43 128 35 197 60 465 172 74 31 182 73 240 93 98 35 112
37 215 36 90 -1 249 -23 274 -38 3 -2 69 -18 146 -35 220 -50 427 -53 535 -9
l33 13 -74 24 c-131 42 -227 103 -215 136 3 11 8 11 76 -4 182 -38 474 -48
615 -21 66 12 215 75 215 90 0 4 -51 10 -112 12 -122 6 -322 51 -315 72 2 7
48 14 113 18 122 7 380 41 446 58 65 17 239 105 284 144 45 38 159 174 152
181 -2 2 -44 -2 -93 -10 -105 -17 -138 -19 -133 -5 2 5 55 47 120 92 64 46
134 105 156 132 69 83 161 291 150 339 -2 11 -31 -10 -95 -68 -91 -81 -224
-178 -313 -227 -70 -39 -372 -156 -458 -178 -171 -43 -256 -61 -398 -84 -209
-34 -531 -62 -798 -70 -81 -3 -150 -7 -153 -9 -2 -3 14 -14 37 -26 125 -65
188 -145 176 -222 -4 -27 0 -58 14 -100 27 -78 24 -103 -12 -107 -21 -3 -43 9
-87 43 -66 52 -134 75 -224 75 -75 0 -183 -44 -337 -136 -196 -118 -335 -185
-480 -230 -55 -17 -50 -17 -50 -1 0 6 20 26 44 42 121 82 330 248 399 316 106
106 131 161 131 289 -1 66 -6 106 -18 133 -13 29 -180 236 -215 267 -3 3 -24
28 -46 55 -21 28 -42 52 -45 55 -12 11 -299 360 -366 445 -405 519 -537 757
-658 1190 -102 368 -125 843 -57 1188 10 48 15 90 11 92 -4 2 -29 -11 -57 -30z"/>
<path d="M2239 3185 c-6 -5 -3 -234 3 -240 1 -2 55 -5 118 -6 l115 -3 3 127 3
127 -119 0 c-65 0 -121 -2 -123 -5z"/>
<path d="M6520 2490 l0 -650 120 0 120 0 0 650 0 650 -120 0 -120 0 0 -650z"/>
<path d="M2940 2455 l0 -615 120 0 120 0 2 168 3 167 200 6 c176 5 207 8 257
28 134 52 202 123 244 254 50 155 33 298 -51 421 -49 73 -96 107 -197 140
-114 38 -188 46 -455 46 l-243 0 0 -615z m557 379 c60 -18 124 -68 150 -118
27 -52 22 -134 -12 -201 -48 -94 -58 -98 -256 -108 -128 -6 -174 -6 -185 3
-11 10 -14 50 -14 210 0 109 3 205 6 214 9 23 233 23 311 0z"/>
<path d="M982 2453 l3 -608 325 0 c357 0 387 4 519 66 133 61 253 221 287 378
18 87 18 232 -1 306 -43 168 -97 257 -202 337 -144 110 -230 127 -631 128
l-303 0 3 -607z m584 372 c145 -28 208 -73 273 -194 39 -73 50 -140 39 -231
-12 -97 -54 -186 -114 -238 -92 -82 -181 -105 -384 -100 l-135 3 -7 45 c-8 56
-10 693 -2 714 5 13 26 16 129 16 68 0 158 -7 201 -15z"/>
<path d="M4211 2775 c-80 -18 -221 -83 -221 -103 0 -10 60 -143 77 -171 2 -2
11 3 21 12 42 38 138 67 221 67 44 0 91 -4 106 -10 53 -20 95 -81 95 -138 l0
-39 -157 -5 c-178 -6 -230 -18 -306 -74 -71 -51 -101 -121 -95 -218 11 -164
112 -256 290 -264 109 -5 174 15 235 71 49 45 60 42 65 -18 l3 -40 104 0 104
0 -2 333 c-3 359 -5 375 -58 457 -67 103 -153 144 -318 151 -66 2 -122 -1
-164 -11z m301 -599 c-4 -91 -73 -165 -161 -174 -63 -6 -92 2 -130 34 -38 32
-48 78 -27 128 23 55 57 66 201 63 l120 -2 -3 -49z"/>
<path d="M5348 2780 c-56 -10 -99 -35 -147 -84 -19 -19 -38 -33 -43 -30 -4 3
-8 30 -8 60 l0 54 -120 0 -120 0 2 -467 3 -468 123 -3 122 -3 0 258 c0 250 1
260 24 308 27 60 103 131 155 145 20 5 55 10 79 10 l43 0 -3 113 -3 112 -30 2
c-16 0 -51 -3 -77 -7z"/>
<path d="M5798 2775 c-103 -28 -213 -106 -263 -185 -59 -94 -89 -281 -61 -388
61 -239 229 -372 472 -372 122 0 234 40 319 113 160 138 200 407 92 611 -56
107 -135 169 -276 217 -64 22 -210 24 -283 4z m243 -218 c89 -47 146 -161 133
-267 -10 -81 -40 -155 -77 -186 -56 -48 -113 -67 -178 -61 -105 9 -181 87
-207 213 -13 61 5 166 39 220 59 95 192 132 290 81z"/>
<path d="M7170 2783 c-82 -13 -238 -77 -247 -99 -6 -15 66 -174 78 -174 4 0
23 9 41 19 94 55 276 69 334 25 45 -33 65 -67 67 -114 l2 -45 -160 -6 c-159
-6 -198 -14 -274 -54 -88 -45 -139 -147 -127 -257 7 -71 24 -106 78 -160 55
-55 115 -79 213 -85 108 -7 181 14 240 68 44 40 71 44 60 9 -3 -10 -3 -30 1
-44 6 -26 6 -26 116 -26 l110 0 -4 343 c-5 384 -7 399 -78 479 -48 55 -121 95
-207 113 -63 14 -186 18 -243 8z m288 -578 c12 -104 -76 -195 -188 -195 -120
0 -181 72 -135 160 27 52 86 69 240 66 l80 -1 3 -30z"/>
<path d="M2247 2773 c-4 -3 -7 -215 -7 -470 l0 -464 123 3 c119 3 122 3 121
26 0 12 -1 222 -2 467 l-2 445 -113 0 c-63 0 -117 -3 -120 -7z"/>
<path d="M1123 1692 c-3 -9 -43 -111 -89 -227 -48 -118 -80 -213 -75 -218 5
-5 24 -7 42 -5 30 3 37 10 59 53 l25 50 97 3 98 3 24 -56 c23 -52 27 -55 60
-55 19 0 37 4 40 9 3 5 -21 76 -55 158 -33 81 -67 166 -75 189 -38 111 -38
110 -94 112 -40 1 -52 -3 -57 -16z m97 -183 c17 -45 30 -83 28 -84 -6 -7 -127
-9 -133 -3 -8 8 54 168 65 168 5 0 23 -37 40 -81z"/>
<path d="M2441 1666 c-7 -8 -11 -27 -9 -42 2 -22 -2 -29 -22 -34 -35 -8 -36
-61 -1 -70 22 -5 24 -9 26 -100 3 -144 33 -185 129 -178 38 3 41 5 44 36 3 29
1 32 -26 32 -50 0 -63 26 -60 121 l3 84 35 5 c31 4 35 8 35 35 0 27 -3 30 -37
33 -36 3 -37 5 -40 45 -3 39 -5 42 -34 45 -18 2 -36 -3 -43 -12z"/>
<path d="M5188 1638 c-2 -36 -7 -44 -25 -46 -19 -3 -23 -10 -23 -37 0 -27 4
-34 23 -37 21 -3 22 -9 27 -103 7 -136 33 -175 116 -175 71 0 91 58 24 71 -51
11 -61 32 -58 124 l3 80 40 5 c37 5 40 8 40 35 0 28 -3 30 -40 35 -39 5 -40 6
-43 48 -3 42 -3 42 -42 42 -39 0 -39 0 -42 -42z"/>
<path d="M1737 1593 c-13 -13 -8 -242 7 -277 30 -73 104 -96 179 -56 l39 21 5
-21 c5 -18 12 -21 47 -18 32 2 41 7 40 21 0 9 -1 87 -2 172 l-2 155 -40 0 -40
0 0 -95 c0 -114 -14 -156 -59 -175 -29 -12 -35 -11 -59 7 -26 20 -27 23 -30
139 -2 79 -7 121 -15 126 -15 9 -61 10 -70 1z"/>
<path d="M3035 1585 c-51 -18 -91 -66 -103 -122 -12 -54 -2 -102 31 -152 73
-110 250 -88 303 38 32 75 3 182 -59 219 -43 26 -122 34 -172 17z m134 -91
c32 -41 29 -123 -5 -158 -53 -52 -138 -21 -151 56 -12 81 21 128 91 128 36 0
48 -5 65 -26z"/>
<path d="M3763 1590 c-18 -4 -40 -13 -48 -20 -12 -10 -16 -9 -21 4 -4 11 -18
16 -45 16 l-39 0 0 -175 0 -175 40 0 40 0 0 113 c0 101 2 115 23 139 30 37 67
44 98 20 22 -19 24 -28 29 -143 5 -134 8 -139 66 -125 24 6 24 8 24 115 0 94
3 112 21 135 23 29 63 35 95 12 16 -12 20 -31 24 -138 l5 -123 40 0 40 0 -4
135 c-5 179 -17 204 -110 213 -31 3 -55 -2 -88 -19 -39 -19 -48 -21 -60 -9
-12 12 -79 37 -93 34 -3 -1 -20 -5 -37 -9z"/>
<path d="M4609 1591 c-105 -34 -151 -162 -96 -263 63 -113 236 -117 301 -6 48
82 25 202 -45 246 -39 23 -121 35 -160 23z m116 -96 c20 -19 25 -34 25 -74 0
-64 -6 -79 -41 -96 -41 -22 -77 -18 -104 10 -33 33 -36 119 -4 159 28 36 89
37 124 1z"/>
<path d="M6966 1590 c-65 -20 -106 -85 -106 -169 0 -79 28 -129 92 -162 49
-25 118 -24 168 1 43 22 48 34 26 63 -13 17 -16 17 -45 3 -47 -25 -98 -21
-127 11 -13 14 -23 31 -21 37 2 7 48 12 118 14 62 1 117 6 121 10 10 10 -11
111 -29 139 -9 13 -28 30 -42 37 -35 18 -120 27 -155 16z m119 -85 c14 -13 25
-33 25 -45 0 -18 -6 -20 -80 -20 -71 0 -80 2 -80 19 0 10 9 30 21 45 28 35 80
36 114 1z"/>
<path d="M7620 1590 c-55 -7 -66 -13 -86 -52 -20 -38 -13 -93 15 -119 11 -11
43 -24 72 -30 28 -6 60 -20 72 -32 l20 -20 -24 -20 c-18 -15 -32 -17 -64 -12
-22 3 -44 10 -49 16 -18 17 -43 9 -54 -17 -12 -24 -10 -26 34 -46 59 -26 151
-22 192 9 35 26 50 81 33 121 -13 31 -46 49 -129 72 -39 10 -43 14 -40 38 3
25 6 27 53 26 28 -1 59 -4 71 -8 16 -6 23 -2 33 20 7 16 8 31 3 36 -14 14
-102 24 -152 18z"/>
<path d="M5750 1568 c-76 -51 -98 -165 -47 -245 33 -52 64 -73 116 -80 87 -12
153 22 191 98 37 71 21 156 -40 214 -28 27 -39 30 -108 33 -67 3 -81 1 -112
-20z m168 -74 c40 -46 26 -150 -25 -173 -82 -37 -148 32 -129 134 14 72 105
95 154 39z"/>
<path d="M6370 1414 l0 -175 38 3 37 3 5 108 c5 104 6 110 33 133 16 14 41 24
58 24 27 0 29 2 29 40 0 37 -2 40 -29 40 -15 0 -40 -10 -55 -21 l-27 -21 -6
21 c-4 17 -13 21 -44 21 l-39 0 0 -176z"/>
</g>
</svg>
